<?xml version="1.0" encoding="UTF-8"?>
<svg version="1.1" xmlns="http://www.w3.org/2000/svg" width="2048" height="2048">
<path d="M0 0 C16.17 0 32.34 0 49 0 C49 114.51 49 229.02 49 347 C33.82 347 18.64 347 3 347 C1.04901915 345.04901915 1.74584892 341.35325071 1.68359375 338.68359375 C1.66281265 337.95253922 1.64203156 337.22148468 1.62062073 336.46827698 C1.55504976 334.12478344 1.49620568 331.78117461 1.4375 329.4375 C1.39432192 327.85220145 1.35070787 326.26691471 1.30664062 324.68164062 C1.1993608 320.78787963 1.0981151 316.89400228 1 313 C0.34644531 313.85271484 0.34644531 313.85271484 -0.3203125 314.72265625 C-11.34531769 329.01698116 -11.34531769 329.01698116 -18.9375 334.5 C-19.5857373 334.96994385 -20.23397461 335.4398877 -20.90185547 335.92407227 C-38.8180566 348.52592616 -59.67385569 353.42177062 -81.375 353.3125 C-82.55819824 353.30686035 -83.74139648 353.3012207 -84.96044922 353.29541016 C-93.67925409 353.17446533 -101.60352816 352.50471024 -110 350 C-110.66080566 349.80664062 -111.32161133 349.61328125 -112.00244141 349.4140625 C-127.91209113 344.64447979 -141.57889001 337.04957218 -154 326 C-154.83917969 325.30390625 -155.67835937 324.6078125 -156.54296875 323.890625 C-178.95733007 304.84710561 -192.58481162 274.86371799 -195.609375 245.8984375 C-197.19854825 225.66355671 -197.42614435 204.662528 -192 185 C-191.81808105 184.3203418 -191.63616211 183.64068359 -191.44873047 182.94042969 C-186.64299525 165.52983935 -177.57863318 148.53576705 -165.2109375 135.38671875 C-162.913365 132.96812544 -162.913365 132.96812544 -160.6796875 130.0703125 C-147.86898804 114.59870251 -126.98006559 105.68570369 -108 101 C-106.63875 100.65001953 -106.63875 100.65001953 -105.25 100.29296875 C-97.25555245 98.36375311 -89.37457917 97.91076259 -81.1875 97.875 C-80.10384155 97.86799072 -80.10384155 97.86799072 -78.99829102 97.86083984 C-68.15152645 97.89206047 -58.41303562 99.00128914 -48.125 102.5625 C-47.07997314 102.91965088 -46.03494629 103.27680176 -44.95825195 103.64477539 C-28.76302934 109.36789917 -9.01757848 119.96484305 -1 136 C-0.505 68.68 -0.505 68.68 0 0 Z " fill="#182431" transform="translate(1598,831)"/>
<path d="M0 0 C1.1013176 -0.00855011 1.1013176 -0.00855011 2.22488403 -0.01727295 C3.77979101 -0.026696 5.33471771 -0.03324619 6.88964844 -0.03710938 C9.21587468 -0.04670206 11.54117253 -0.0777016 13.8671875 -0.109375 C26.86479018 -0.20250214 39.0252527 1.67003395 51.3828125 5.890625 C52.50236328 6.27081787 52.50236328 6.27081787 53.64453125 6.65869141 C65.53813728 10.86638267 75.87902332 16.86877955 85.3828125 25.203125 C86.11628906 25.79351563 86.84976562 26.38390625 87.60546875 26.9921875 C109.4229498 45.0772247 123.23829483 75.44674644 126.3828125 103.203125 C126.65961537 108.23358795 126.63061924 113.2689049 126.58862305 118.30517578 C126.57017262 120.59548935 126.56811546 122.88540044 126.56835938 125.17578125 C126.54788664 131.32652436 126.3988785 137.106729 125.3828125 143.203125 C63.3428125 143.203125 1.3028125 143.203125 -62.6171875 143.203125 C-59.13172379 157.05307728 -59.13172379 157.05307728 -53.6796875 169.828125 C-53.16438477 170.81135742 -53.16438477 170.81135742 -52.63867188 171.81445312 C-50.0440422 176.66066088 -47.2783668 181.10409474 -43.6171875 185.203125 C-42.77994141 186.17765625 -42.77994141 186.17765625 -41.92578125 187.171875 C-28.88153207 201.33264655 -9.73465773 208.27014305 9.1171875 209.43359375 C29.54627617 209.85751753 48.19497137 205.11127341 64.3828125 192.203125 C65.01445313 191.72230469 65.64609375 191.24148438 66.296875 190.74609375 C71.13891755 186.87459277 74.73790532 182.18856035 78.3828125 177.203125 C81.74518471 177.85842085 84.23547779 179.14048526 87.1640625 180.8984375 C88.54343994 181.72081909 88.54343994 181.72081909 89.95068359 182.55981445 C90.91828613 183.14335693 91.88588867 183.72689941 92.8828125 184.328125 C94.86444653 185.51194778 96.84621642 186.69554317 98.828125 187.87890625 C99.78235352 188.4507666 100.73658203 189.02262695 101.71972656 189.61181641 C105.05245619 191.60326596 108.40167012 193.56391151 111.7578125 195.515625 C112.67304687 196.04800781 113.58828125 196.58039063 114.53125 197.12890625 C115.44777344 197.66064453 115.44777344 197.66064453 116.3828125 198.203125 C109.2233894 218.17791545 88.21576577 234.05296363 69.79296875 242.93359375 C63.11407685 245.87056576 56.46760822 248.46018988 49.3828125 250.203125 C48.76921875 250.37086426 48.155625 250.53860352 47.5234375 250.71142578 C26.78975217 256.27970641 1.1442574 257.09600521 -19.6171875 251.203125 C-20.43687012 250.97206055 -21.25655273 250.74099609 -22.10107422 250.50292969 C-43.3299723 244.32654397 -60.54883448 234.53880154 -76.6171875 219.203125 C-77.15923828 218.69023926 -77.70128906 218.17735352 -78.25976562 217.64892578 C-91.62702354 204.70352151 -99.84412289 188.63956153 -105.8671875 171.265625 C-106.10163574 170.59926025 -106.33608398 169.93289551 -106.57763672 169.24633789 C-110.91373378 156.04661097 -112.11323626 143.00200093 -112.00830078 129.21240234 C-111.99219858 126.70485073 -112.00826226 124.19890998 -112.02734375 121.69140625 C-112.04547327 108.25009598 -110.47224131 95.31441246 -106.1171875 82.515625 C-105.87145996 81.78923828 -105.62573242 81.06285156 -105.37255859 80.31445312 C-100.48242786 66.63018427 -93.51055913 52.91628637 -83.6171875 42.203125 C-82.79863281 41.24535156 -81.98007813 40.28757812 -81.13671875 39.30078125 C-63.08836011 18.42533195 -39.31229251 6.72918177 -12.6171875 1.203125 C-11.87339844 1.026604 -11.12960937 0.85008301 -10.36328125 0.66821289 C-6.90435686 0.08239755 -3.49776392 0.02145899 0 0 Z " fill="#172330" transform="translate(1800.6171875,929.796875)"/>
<path d="M0 0 C18.97413821 15.35640252 28.12734831 36.54494537 30.71851921 60.48921013 C31.18505336 66.85615629 31.05868255 73.25039478 31.04321289 79.63110352 C31.04293044 81.2678782 31.04308988 82.904653 31.0436554 84.54142761 C31.04394112 88.9622525 31.03808086 93.38304999 31.03108144 97.80386853 C31.02481033 102.43230883 31.02424113 107.06074983 31.02305603 111.68919373 C31.01995377 120.44372714 31.01175532 129.198248 31.00170654 137.9527759 C30.99051104 147.92377262 30.9850263 157.89476996 30.98001111 167.86577141 C30.96957174 188.36755408 30.95124004 208.86931954 30.9296875 229.37109375 C16.4096875 229.37109375 1.8896875 229.37109375 -13.0703125 229.37109375 C-14.0603125 220.13109375 -15.0503125 210.89109375 -16.0703125 201.37109375 C-17.6378125 203.16546875 -19.2053125 204.95984375 -20.8203125 206.80859375 C-36.62834963 224.27501569 -59.50014258 234.92390433 -83.0703125 236.37109375 C-111.20699581 237.63739148 -135.83549533 234.35495591 -158.12109375 215.8359375 C-170.80747764 203.9216157 -179.40277568 186.4048911 -180.23828125 168.83984375 C-180.3412024 147.92626585 -176.16248649 129.2292004 -161.33984375 113.64453125 C-160.59089844 112.89429688 -159.84195313 112.1440625 -159.0703125 111.37109375 C-158.45542969 110.74460937 -157.84054688 110.118125 -157.20703125 109.47265625 C-133.43082733 86.96926838 -95.52810766 84.55434414 -64.77648926 80.45043945 C-60.65975549 79.89843171 -56.54485492 79.33307384 -52.4296875 78.76953125 C-27.32053829 75.34222578 -27.32053829 75.34222578 -18.0703125 74.37109375 C-18.41437921 60.00630876 -19.1984914 46.02720411 -30.0703125 35.37109375 C-41.96401419 25.1699573 -57.66993514 23.55029198 -72.76220703 24.1875 C-95.09481384 25.96390367 -113.11822661 37.34030026 -128.0703125 53.37109375 C-132.64273886 51.93749813 -135.16111075 49.61799696 -138.484375 46.21484375 C-138.98069427 45.71190796 -139.47701355 45.20897217 -139.9883728 44.6907959 C-141.56465854 43.09121316 -143.13038994 41.48178837 -144.6953125 39.87109375 C-146.26908156 38.26219162 -147.84500164 36.65548131 -149.42367554 35.0513916 C-150.85268035 33.59773221 -152.27538276 32.1378853 -153.69775391 30.67773438 C-156.0422953 28.25812221 -156.0422953 28.25812221 -159.0703125 26.37109375 C-156.91074382 21.62004264 -153.57677273 18.17810772 -150.0703125 14.37109375 C-149.52117187 13.7678125 -148.97203125 13.16453125 -148.40625 12.54296875 C-113.51160866 -24.1708245 -40.57546371 -30.00155858 0 0 Z " fill="#78DBEF" transform="translate(299.0703125,947.62890625)"/>
<path d="M0 0 C2.343419 0.00314002 4.68554658 -0.02029645 7.02880859 -0.0456543 C30.13869874 -0.14065102 54.20710144 5.39896498 71.74365234 21.31567383 C72.42685547 21.91895508 73.11005859 22.52223633 73.81396484 23.14379883 C90.36749267 38.62732676 96.91240338 62.20744641 97.92464066 84.25838852 C98.01160432 88.58401411 97.99180627 92.90890962 97.97070312 97.23510742 C97.9701375 98.88247165 97.97045852 100.52983638 97.97158813 102.17720032 C97.97215674 106.6039614 97.96048318 111.0306118 97.94644022 115.45734739 C97.9338498 120.1004348 97.93275586 124.74352536 97.9303894 129.3866272 C97.92419888 138.15872025 97.90782126 146.93076284 97.88769042 155.70283377 C97.86525543 165.6981244 97.85431897 175.69341756 97.84429955 185.68872714 C97.8234526 206.23107704 97.78680707 226.77335785 97.74365234 247.31567383 C83.22365234 247.31567383 68.70365234 247.31567383 53.74365234 247.31567383 C53.08365234 237.74567383 52.42365234 228.17567383 51.74365234 218.31567383 C48.27865234 222.77067383 48.27865234 222.77067383 44.74365234 227.31567383 C33.89138028 239.42013113 18.27374049 247.0491661 2.74365234 251.31567383 C1.11363281 251.76620117 1.11363281 251.76620117 -0.54931641 252.22583008 C-26.25851112 258.15024258 -56.17450082 255.87392854 -79.06884766 242.06567383 C-94.78506995 231.3124691 -105.69037063 217.13843223 -110.13134766 198.44067383 C-113.8065991 177.3736075 -111.5729653 157.601282 -100.25634766 139.31567383 C-97.525129 135.65149021 -94.55179331 132.47404721 -91.25634766 129.31567383 C-90.60537109 128.63375977 -89.95439453 127.9518457 -89.28369141 127.24926758 C-68.5085363 106.79434608 -35.35517252 103.31619089 -7.94384766 99.81567383 C-4.46857611 99.36236424 -0.99369408 98.90614451 2.48118591 98.44984436 C4.75592342 98.15140464 7.03079396 97.85397698 9.30580139 97.55760193 C19.27272015 96.25727207 29.22140679 94.85078435 39.16479492 93.38208008 C40.64435669 93.16551758 40.64435669 93.16551758 42.15380859 92.94458008 C42.98017822 92.82155518 43.80654785 92.69853027 44.65795898 92.57177734 C46.74365234 92.31567383 46.74365234 92.31567383 49.74365234 92.31567383 C49.37197569 77.83886805 47.96596496 63.18022432 36.93115234 52.57348633 C23.781689 41.91605838 6.90550326 41.29678163 -9.25634766 42.31567383 C-26.09159743 44.10057824 -40.61090396 52.57986897 -52.77197266 64.00708008 C-55.85464314 66.87163709 -59.04685024 69.59495277 -62.25634766 72.31567383 C-62.66884766 71.89793701 -63.08134766 71.4802002 -63.50634766 71.04980469 C-72.38438537 61.91710292 -72.38438537 61.91710292 -81.81884766 53.37817383 C-85.63179587 50.17429612 -88.44998753 46.40828234 -91.25634766 42.31567383 C-73.78106383 21.49886287 -51.7904802 8.37118126 -25.25634766 2.31567383 C-24.57717285 2.13689697 -23.89799805 1.95812012 -23.19824219 1.77392578 C-15.53201167 -0.05816784 -7.83383616 -0.02186413 0 0 Z " fill="#172330" transform="translate(1263.25634765625,929.684326171875)"/>
<path d="M0 0 C0.75222839 0.00215515 1.50445679 0.0043103 2.27947998 0.00653076 C29.47418851 0.13158551 54.67113708 5.39159278 75.00585938 24.77978516 C94.25884547 44.52982547 97.67721207 71.48112502 97.61352539 97.68603516 C97.61324287 99.32295734 97.61340252 100.95987965 97.6139679 102.59680176 C97.61425333 107.01343536 97.60839782 111.43004147 97.60139394 115.84666872 C97.59511795 120.47243388 97.59455325 125.09819975 97.59336853 129.72396851 C97.59026769 138.47138544 97.58207118 147.21878978 97.57201904 155.96620119 C97.56081908 165.9299661 97.55533769 175.89373162 97.55032361 185.85750127 C97.53988747 206.34250942 97.52155757 226.82750033 97.5 247.3125 C82.98 247.3125 68.46 247.3125 53.5 247.3125 C52.84 237.7425 52.18 228.1725 51.5 218.3125 C49.52 220.9525 47.54 223.5925 45.5 226.3125 C34.80974972 237.80451905 22.12677258 244.12170588 7.5 249.3125 C6.38661255 249.78925171 6.38661255 249.78925171 5.25073242 250.27563477 C-5.34758135 254.27057917 -16.67115431 254.83845141 -27.875 254.75 C-28.88614868 254.74543793 -28.88614868 254.74543793 -29.91772461 254.74078369 C-40.61433105 254.66963741 -50.36864872 253.80532132 -60.5 250.3125 C-61.14807617 250.09819336 -61.79615234 249.88388672 -62.46386719 249.66308594 C-71.53261354 246.61651931 -79.08751185 242.43333009 -86.5 236.3125 C-87.29019531 235.69632813 -88.08039063 235.08015625 -88.89453125 234.4453125 C-102.77368683 223.04879974 -109.56105166 205.85060044 -111.5 188.3125 C-113.04476178 168.19029877 -108.57647978 148.91758373 -95.3203125 133.25390625 C-72.78458136 109.21901703 -38.229928 103.1395605 -6.78979492 100.07910156 C-0.2299654 99.42915384 6.26413799 98.50300742 12.77709961 97.49267578 C20.22827677 96.3387292 27.69367693 95.31252232 35.16723633 94.31469727 C39.62558536 93.71670155 44.06803612 93.08772801 48.5 92.3125 C49.11611972 76.75547713 47.91716348 65.52854881 36.98046875 53.6640625 C24.94661986 42.12796405 8.34600869 42.93959622 -7.1484375 43.10546875 C-23.35840819 43.48962479 -37.298526 49.62796601 -49.5 60.3125 C-50.39074219 61.08335937 -51.28148437 61.85421875 -52.19921875 62.6484375 C-57.29988106 67.07650507 -57.29988106 67.07650507 -61.5 72.3125 C-65.65125625 70.66753261 -68.49807357 67.65521245 -71.61328125 64.5703125 C-72.47399483 63.72314163 -72.47399483 63.72314163 -73.35209656 62.8588562 C-74.55913623 61.66628977 -75.76341323 60.47092146 -76.96508789 59.27294922 C-78.81144566 57.43854751 -80.6756365 55.6236236 -82.54101562 53.80859375 C-83.71208154 52.64698555 -84.88204281 51.48426243 -86.05078125 50.3203125 C-86.61211258 49.77851349 -87.17344391 49.23671448 -87.75178528 48.67849731 C-91.49061806 44.89490696 -91.49061806 44.89490696 -91.53466797 42.16040039 C-89.43984057 38.41907226 -86.33817992 35.62284478 -83.3125 32.625 C-82.58998047 31.90892578 -81.86746094 31.19285156 -81.12304688 30.45507812 C-74.77085616 24.31444152 -68.23321695 19.53481547 -60.5 15.3125 C-59.87657715 14.96251953 -59.2531543 14.61253906 -58.61083984 14.25195312 C-48.69003027 8.73679083 -38.56118185 4.8689887 -27.5 2.3125 C-26.71512207 2.12631104 -25.93024414 1.94012207 -25.12158203 1.74829102 C-16.78109631 -0.01167825 -8.48038484 -0.04351541 0 0 Z " fill="#172330" transform="translate(598.5,929.6875)"/>
<path d="M0 0 C1.12044205 0.00223572 1.12044205 0.00223572 2.26351929 0.0045166 C13.16842414 0.04363105 23.59891653 0.4710682 34.1875 3.3125 C35.3321875 3.61414063 36.476875 3.91578125 37.65625 4.2265625 C64.27298934 11.87576563 83.69199401 27.15547984 99.6328125 49.4296875 C101.1875 52.3125 101.1875 52.3125 101.01098633 54.33056641 C99.96131986 56.85686122 98.89933358 57.50754985 96.56640625 58.90625 C95.80384521 59.37385742 95.04128418 59.84146484 94.25561523 60.32324219 C93.42876221 60.81469727 92.60190918 61.30615234 91.75 61.8125 C90.02202636 62.86748381 88.29550118 63.92484314 86.5703125 64.984375 C85.6824707 65.52771484 84.79462891 66.07105469 83.87988281 66.63085938 C78.75943551 69.82904953 73.78123516 73.24312263 68.80102539 76.65429688 C68.09196045 77.13447266 67.38289551 77.61464844 66.65234375 78.109375 C66.029646 78.53573242 65.40694824 78.96208984 64.76538086 79.40136719 C63.1875 80.3125 63.1875 80.3125 61.1875 80.3125 C59.99609375 78.66015625 59.99609375 78.66015625 58.625 76.375 C48.79305049 61.24709701 34.84410662 54.47189935 18.1875 49.3125 C17.36507813 49.04308594 16.54265625 48.77367187 15.6953125 48.49609375 C-1.62570256 43.67721213 -21.12762086 48.64280139 -36.8125 56.3125 C-40.71600234 58.72521753 -44.2650304 61.40793751 -47.8125 64.3125 C-48.85277344 65.07433594 -48.85277344 65.07433594 -49.9140625 65.8515625 C-64.06617593 76.84623229 -71.84876887 96.1982307 -74.8125 113.3125 C-75.22077982 117.92668912 -75.29166593 122.49463324 -75.25 127.125 C-75.23428955 128.96856079 -75.23428955 128.96856079 -75.21826172 130.84936523 C-74.80314373 151.66712001 -67.51063836 170.83059062 -52.64453125 185.73828125 C-36.60961621 200.31346609 -17.73649461 208.31120514 4.17578125 207.59375 C24.50204286 205.69557771 41.74972591 198.39069091 55.23828125 182.72265625 C57.70617116 179.67117714 59.99439596 176.56678341 62.1875 173.3125 C69.39865968 176.75501341 76.36768333 180.59765782 83.33886719 184.49511719 C89.9178627 188.17218261 96.5380256 191.76454723 103.1875 195.3125 C101.66449675 199.79689846 99.20568895 203.39668426 96.4375 207.1875 C95.98648926 207.80955322 95.53547852 208.43160645 95.07080078 209.07250977 C78.57875734 231.64321841 55.86643308 244.36577715 29.1875 251.3125 C28.52250488 251.4995752 27.85750977 251.68665039 27.17236328 251.87939453 C10.33299872 256.46351406 -9.96607048 255.98562068 -26.79931641 251.80859375 C-29.00881916 251.26412254 -31.22764308 250.77402094 -33.44921875 250.28125 C-63.14430853 243.39582273 -90.25658979 223.92825881 -106.67919922 198.19091797 C-110.14690886 192.44327515 -113.02219559 186.41008547 -115.8125 180.3125 C-116.22242188 179.45398437 -116.63234375 178.59546875 -117.0546875 177.7109375 C-120.62270664 169.66215014 -122.12547774 160.90735242 -123.8125 152.3125 C-124.04195312 151.20390625 -124.27140625 150.0953125 -124.5078125 148.953125 C-127.55632192 131.69255052 -126.9991208 113.29665165 -122.8125 96.3125 C-122.56886719 95.06339844 -122.32523438 93.81429687 -122.07421875 92.52734375 C-117.39030543 70.35090106 -105.3532994 51.42633772 -89.8125 35.3125 C-89.14476562 34.58160156 -88.47703125 33.85070312 -87.7890625 33.09765625 C-75.32539324 19.8188525 -57.18799519 10.33082492 -40 4.8125 C-39.28505371 4.58151611 -38.57010742 4.35053223 -37.83349609 4.11254883 C-25.45576638 0.43272095 -12.80763656 -0.06338034 0 0 Z " fill="#17232F" transform="translate(1024.8125,929.6875)"/>
<path d="M0 0 C16.94693453 13.13387426 27.25998856 30.17515094 31.25 51.25 C31.81281911 56.47359288 31.9183356 61.62400938 31.875 66.875 C31.87102707 67.91149689 31.87102707 67.91149689 31.86697388 68.96893311 C31.77789317 81.43413825 29.93669198 92.65327257 25.25 104.25 C24.99331543 104.91080566 24.73663086 105.57161133 24.47216797 106.25244141 C17.36415184 124.01102458 3.58980561 136.72778768 -13.75 144.25 C-22.96032037 147.82104505 -31.55344646 148.45540725 -41.375 148.5 C-43.04369141 148.5309375 -43.04369141 148.5309375 -44.74609375 148.5625 C-63.44006946 148.64954995 -79.35629525 141.11804915 -92.75 128.25 C-108.37327845 112.24442273 -116.18244125 89.54196663 -116.0625 67.4375 C-116.05831055 66.38014648 -116.05412109 65.32279297 -116.04980469 64.23339844 C-115.93755753 56.46923896 -115.1464822 49.66768301 -112.75 42.25 C-112.34974609 40.79013672 -112.34974609 40.79013672 -111.94140625 39.30078125 C-106.60489391 21.1566393 -94.77272226 6.06363335 -78.56640625 -3.66015625 C-53.63712211 -16.98784391 -23.6490259 -16.44138739 0 0 Z " fill="none" transform="translate(1566.75,988.75)"/>
<path d="M0 0 C0 16.83 0 33.66 0 51 C-5.61 51.66 -11.22 52.32 -17 53 C-36.63408697 57.08233491 -54.46067683 66.25830172 -65.6875 83.375 C-66.81190463 85.23793404 -67.91699214 87.11269954 -69 89 C-69.4640625 89.80308594 -69.928125 90.60617187 -70.40625 91.43359375 C-81.51783093 112.06454737 -81.45488015 136.45965839 -81.51171875 159.23046875 C-81.52860221 161.80407039 -81.54675725 164.37766396 -81.56611633 166.95124817 C-81.60843784 172.97840607 -81.63815881 179.00549237 -81.66143972 185.0327428 C-81.68872669 191.90858355 -81.73262083 198.78428931 -81.77772844 205.66003263 C-81.8699544 219.77329204 -81.93972462 233.88656879 -82 248 C-98.17 248 -114.34 248 -131 248 C-131.02202649 217.18765125 -131.04049792 186.37531008 -131.05106533 155.56295592 C-131.05231611 151.92909625 -131.05361042 148.2952366 -131.05493164 144.66137695 C-131.05519395 143.93791049 -131.05545626 143.21444402 -131.05572652 142.46905433 C-131.06008332 130.73944832 -131.06797092 119.00984718 -131.0771528 107.28024406 C-131.08648906 95.25351756 -131.09205555 83.22679362 -131.09408849 71.20006365 C-131.09534006 64.44108561 -131.09836183 57.68211777 -131.10573006 50.92314339 C-131.11248603 44.56951044 -131.11461783 38.2158932 -131.11310768 31.862257 C-131.1133842 29.52285553 -131.11539182 27.18345356 -131.11920547 24.84405518 C-131.12413612 21.6651872 -131.12300063 18.48637957 -131.12025452 15.30751038 C-131.12316736 14.36881373 -131.1260802 13.43011708 -131.12908131 12.46297508 C-131.11412121 6.11412121 -131.11412121 6.11412121 -130 5 C-128.58774954 4.9071274 -127.17091066 4.88253228 -125.75561523 4.88647461 C-124.84211304 4.88659546 -123.92861084 4.88671631 -122.98742676 4.88684082 C-122.02091187 4.89195679 -121.05439697 4.89707275 -120.05859375 4.90234375 C-118.73317566 4.90385437 -118.73317566 4.90385437 -117.38098145 4.90539551 C-114.06647451 4.91064469 -110.75198601 4.92460583 -107.4375 4.9375 C-100.033125 4.958125 -92.62875 4.97875 -85 5 C-84.34 22.16 -83.68 39.32 -83 57 C-81.35 53.04 -79.7 49.08 -78 45 C-69.3591027 26.93651053 -53.50543588 12.52141632 -35 5 C-22.77939927 0.88691755 -13.14712424 0 0 0 Z " fill="#182431" transform="translate(884,930)"/>
<path d="M0 0 C16.17 0 32.34 0 49 0 C49 79.86 49 159.72 49 242 C32.83 242 16.66 242 0 242 C0 162.14 0 82.28 0 0 Z " fill="#77DBEF" transform="translate(390,935)"/>
<path d="M0 0 C0.07492194 5.33444247 0.12896171 10.66856946 0.16479492 16.00341797 C0.17975449 17.81304265 0.20012957 19.6226319 0.22631836 21.43212891 C0.37104006 31.6988567 0.33893622 41.15406223 -3 51 C-3.45052734 52.36487549 -3.45052734 52.36487549 -3.91015625 53.75732422 C-8.75138553 67.76592779 -19.9757848 77.01230367 -32.90600586 83.33642578 C-48.15971671 90.42942815 -69.26129732 93.3359626 -85.55078125 87.97265625 C-96.59429893 83.58695306 -104.86598283 78.58632375 -109.9921875 67.52734375 C-112.19615494 62.00034014 -113.38929354 57.22327017 -113.375 51.25 C-113.37338867 50.54697754 -113.37177734 49.84395508 -113.37011719 49.11962891 C-113.2294826 43.11232598 -111.92236019 38.28663076 -109 33 C-108.13375 31.4221875 -108.13375 31.4221875 -107.25 29.8125 C-92.17345854 10.96682318 -66.39202451 8.58327054 -44 6 C-42.95376465 5.87915039 -41.9075293 5.75830078 -40.82958984 5.63378906 C-39.75531738 5.5097168 -38.68104492 5.38564453 -37.57421875 5.2578125 C-35.40358861 5.00570057 -33.23301528 4.75309895 -31.0625 4.5 C-30.00957764 4.37826416 -28.95665527 4.25652832 -27.87182617 4.13110352 C-20.75055992 3.28211795 -13.7889077 2.12064097 -6.79296875 0.55078125 C-4 0 -4 0 0 0 Z " fill="none" transform="translate(1313,1056)"/>
<path d="M0 0 C0.04984062 5.22866463 0.08592606 10.45718765 0.10986328 15.68603516 C0.11985378 17.46079928 0.13345081 19.23554723 0.15087891 21.01025391 C0.33152855 39.89345459 0.33152855 39.89345459 -2 48 C-2.26039063 48.98871094 -2.52078125 49.97742187 -2.7890625 50.99609375 C-7.50578719 64.77157474 -17.35635263 75.85609508 -30.3125 82.4375 C-32.19537582 83.31986237 -34.09071728 84.17633489 -36 85 C-36.77085937 85.34933594 -37.54171875 85.69867187 -38.3359375 86.05859375 C-54.72527217 91.85013283 -76.40006937 92.64979096 -92.29296875 85.5234375 C-102.628513 79.89987429 -108.52504272 73.24587822 -112 62 C-114.46043724 52.36328747 -113.77977105 41.57825538 -108.78125 32.87890625 C-98.21364772 17.820073 -82.44818026 12.2335558 -65 9 C-57.50699756 7.89668714 -49.98373057 7.05998025 -42.45794678 6.21591187 C-34.14481553 5.2816822 -25.88449333 4.15202587 -17.625 2.8125 C-16.06628174 2.56197876 -16.06628174 2.56197876 -14.47607422 2.30639648 C-0.5 0 -0.5 0 0 0 Z " fill="none" transform="translate(648,1056)"/>
<path d="M0 0 C0.10027516 5.2794872 0.17211836 10.55839777 0.21972656 15.83862305 C0.23961147 17.627784 0.26672938 19.41688201 0.30175781 21.20581055 C0.64323964 39.11854099 -1.44901997 56.48572168 -14.19140625 70.3203125 C-29.38575826 84.43169773 -48.09208241 90.70204682 -68.58251953 90.40454102 C-81.597995 89.91033685 -94.57110447 86.42889553 -104 77 C-111.8262926 67.50076525 -113.93681229 57.110428 -113 45 C-111.99129817 36.04977261 -107.14403983 28.46621407 -100.375 22.6875 C-79.54556597 7.28239775 -47.57632952 6.63671626 -22.83325195 3.39453125 C-17.10558195 2.63153652 -11.49020168 1.78918869 -5.88476562 0.37158203 C-4 0 -4 0 0 0 Z " fill="none" transform="translate(281,1056)"/>
<path d="M0 0 C1.01344482 -0.00555908 2.02688965 -0.01111816 3.07104492 -0.0168457 C12.60405146 0.07394484 21.15735986 1.53678122 29.875 5.4375 C30.90572632 5.89709106 30.90572632 5.89709106 31.95727539 6.3659668 C38.02938024 9.18905679 43.02848061 12.66968721 47.875 17.3125 C48.64199219 18.02792969 49.40898438 18.74335937 50.19921875 19.48046875 C62.28162971 31.72698716 67.35042343 47.54215777 68.875 64.3125 C22.675 64.3125 -23.525 64.3125 -71.125 64.3125 C-71.125 46.80722349 -61.53122554 31.20611932 -49.875 18.6875 C-42.63794266 11.70890899 -33.44112129 6.90473321 -24.125 3.3125 C-22.87976562 2.83103516 -22.87976562 2.83103516 -21.609375 2.33984375 C-14.48963279 0.10191309 -7.39801374 0.03432561 0 0 Z " fill="none" transform="translate(1810.125,973.6875)"/>
<path d="M0 0 C7.83287187 4.182458 13.94268309 10.24394857 17.3125 18.5 C19.55937655 27.73262001 18.82204133 37.18951146 14.0625 45.4375 C9.07112309 52.95766468 2.49955361 56.6251488 -5.9375 59.4375 C-16.919051 60.43712103 -23.72979998 58.57596668 -32.75 52.5625 C-39.84869928 45.6666207 -42.95572251 37.83244885 -43.375 27.9375 C-43.0503643 18.71784601 -39.36253144 11.97944915 -33.09765625 5.3515625 C-24.50819403 -2.25935339 -10.6607101 -4.36883741 0 0 Z " fill="#7BDBF0" transform="translate(426.9375,837.5625)"/>
<path d="M0 0 C16.17 0 32.34 0 49 0 C49 79.86 49 159.72 49 242 C32.83 242 16.66 242 0 242 C0 162.14 0 82.28 0 0 Z M2 2 C2 80.54 2 159.08 2 240 C16.85 240 31.7 240 47 240 C47.81084999 164.18908123 47.81084999 164.18908123 48.125 88.375 C48.125 87.69207382 48.125 87.00914764 48.125 86.30552673 C48.11833114 58.19649709 47.64231146 30.10112654 47 2 C32.15 2 17.3 2 2 2 Z " fill="#91D6E3" transform="translate(390,935)"/>
<path d="M0 0 C1.23556641 0.01740234 1.23556641 0.01740234 2.49609375 0.03515625 C3.32238281 0.04417969 4.14867187 0.05320312 5 0.0625 C5.63808594 0.07410156 6.27617187 0.08570313 6.93359375 0.09765625 C8.57818405 3.38683686 8.11820432 7.03985962 8.13671875 10.65625 C8.14241882 11.51517349 8.1481189 12.37409698 8.1539917 13.25904846 C8.16345314 15.08406338 8.16998021 16.90909547 8.17382812 18.73413086 C8.18344675 21.49299275 8.21442171 24.25108148 8.24609375 27.00976562 C8.36139878 46.18785506 3.92322435 60.29397894 -9.38671875 74.58984375 C-22.24121478 86.8656808 -39.55031665 93.01929598 -57.13525391 92.69458008 C-59.1983182 92.66004053 -61.25712129 92.67406123 -63.3203125 92.69335938 C-77.06260316 92.68044041 -87.72205285 89.26842012 -98.06640625 80.09765625 C-106.26265571 71.45836628 -109.37615266 61.32322215 -109.21875 49.60546875 C-108.99354922 45.89831743 -108.23205954 42.6144852 -107.06640625 39.09765625 C-106.79828125 38.25847656 -106.53015625 37.41929688 -106.25390625 36.5546875 C-104.16774066 30.66996206 -102.16732786 27.6791544 -97.06640625 24.09765625 C-96.50953125 23.49953125 -95.95265625 22.90140625 -95.37890625 22.28515625 C-94.06640625 21.09765625 -94.06640625 21.09765625 -91.06640625 21.09765625 C-91.06640625 20.43765625 -91.06640625 19.77765625 -91.06640625 19.09765625 C-74.48502394 12.04116178 -59.33711383 8.24750212 -41.46728516 6.22583008 C-34.49006079 5.429408 -27.61687581 4.39587932 -20.71948242 3.08642578 C-15.55296226 2.12452211 -10.43472107 1.60780465 -5.19140625 1.30859375 C-2.71131978 1.0624087 -2.47418686 0.11692755 0 0 Z M-4.00463867 2.265625 C-16.71154835 4.90705352 -29.51812547 6.5816325 -42.39038086 8.1706543 C-74.32893172 11.93574261 -74.32893172 11.93574261 -100.01171875 29.47265625 C-106.27660626 38.67326399 -108.00438575 46.96080106 -107.06640625 58.09765625 C-104.92006714 68.73123343 -101.1147732 76.23250077 -92.50390625 82.84765625 C-86.78993301 86.63965668 -80.68474843 88.4842727 -74.06640625 90.09765625 C-73.28265625 90.28972656 -72.49890625 90.48179688 -71.69140625 90.6796875 C-52.1431209 93.79228651 -32.65090298 89.02785466 -16.26171875 78.25390625 C-3.69871912 68.9366664 3.33299881 55.32534472 5.93359375 40.09765625 C6.1718363 36.9550503 6.1692192 33.83763222 6.12890625 30.6875 C6.12466141 29.40813316 6.12466141 29.40813316 6.12033081 28.10292053 C6.10925206 25.41351507 6.08417168 22.72445883 6.05859375 20.03515625 C6.048548 18.19727048 6.03942496 16.35937942 6.03125 14.52148438 C6.00935326 10.04674312 5.97491048 5.57225862 5.93359375 1.09765625 C2.4145259 1.09765625 -0.58017351 1.55366256 -4.00463867 2.265625 Z " fill="#8ED6E2" transform="translate(275.06640625,1054.90234375)"/>
<path d="M0 0 C-6.78304038 4.52202692 -16.54344512 4.23589484 -24.50390625 4.75390625 C-27.1279227 4.91951807 -27.1279227 4.91951807 -30 6 C-33.35279172 6.3075172 -36.70619297 6.5089708 -40.06640625 6.71875 C-42.93165746 6.81590661 -42.93165746 6.81590661 -45 8 C-46.5998634 8.2038764 -48.20535297 8.36506712 -49.8125 8.5 C-53.27901255 8.81693829 -56.59005528 9.30052416 -60 10 C-62.23761317 10.26373341 -64.47653479 10.49768653 -66.71875 10.71875 C-69.03925115 10.97343347 -69.03925115 10.97343347 -71.453125 11.5078125 C-74.06988201 12.01350481 -76.59141205 12.21175337 -79.25 12.375 C-83.6964672 12.75493845 -87.44684039 13.64009699 -91.6171875 15.1796875 C-94.40010461 16.13774093 -97.19968102 16.81837643 -100.0625 17.5 C-104.88393857 18.67789575 -109.42652586 20.08119008 -114 22 C-114.70511719 22.28617188 -115.41023438 22.57234375 -116.13671875 22.8671875 C-129.51087749 28.51561056 -140.9691292 36.73835499 -149 49 C-149.37769531 49.56203125 -149.75539062 50.1240625 -150.14453125 50.703125 C-152.75499568 54.8876897 -154.10321245 59.21411533 -155.38671875 63.9609375 C-156 66 -156 66 -157 67 C-160.97862256 84.68599371 -160.5622124 103.81533021 -152 120 C-151.52046875 120.95132812 -151.52046875 120.95132812 -151.03125 121.921875 C-147.16267135 129.19213488 -142.00106182 135.57859079 -135.578125 140.7109375 C-133.94083263 142.04832978 -132.47166478 143.48400797 -131 145 C-135.95798841 145 -138.55902929 141.31123932 -142 138 C-142.66644531 137.3709375 -143.33289063 136.741875 -144.01953125 136.09375 C-156.00543427 123.80051613 -162.30149226 105.82341553 -162.375 88.8125 C-161.76687594 68.09574034 -155.79182548 50.81728474 -141 36 C-140.38511719 35.37351562 -139.77023438 34.74703125 -139.13671875 34.1015625 C-115.29874134 11.53970808 -77.29689006 9.17039936 -46.47302246 5.0793457 C-41.50412132 4.41761041 -36.53711245 3.74183703 -31.56991577 3.06744766 C-27.71557685 2.54429421 -23.86098801 2.02336286 -20.00537109 1.50970459 C-19.3012912 1.41536133 -18.5972113 1.32101807 -17.87179565 1.22381592 C-15.97911876 0.9702818 -14.08624635 0.71820839 -12.19335938 0.46624756 C-10.19170403 0.17399517 -8.19615239 -0.1694955 -6.21679688 -0.58685303 C-3.79820829 -1.03760815 -2.3128479 -0.7709493 0 0 Z " fill="#90D7E3" transform="translate(281,1023)"/>
<path d="M0 0 C0.10027516 5.2794872 0.17211836 10.55839777 0.21972656 15.83862305 C0.23961147 17.627784 0.26672938 19.41688201 0.30175781 21.20581055 C0.64323964 39.11854099 -1.44901997 56.48572168 -14.19140625 70.3203125 C-30.14509856 85.13691659 -49.56409707 90.97489503 -70.9609375 90.2734375 C-75.74818346 90.01158253 -80.3808062 89.29987363 -85 88 C-85 87.67 -85 87.34 -85 87 C-83.91452881 87.01571045 -83.91452881 87.01571045 -82.80712891 87.03173828 C-68.38562227 87.21232142 -54.28566317 87.09149578 -40 85 C-40 84.34 -40 83.68 -40 83 C-38.56570999 82.32645501 -37.12742943 81.66140299 -35.6875 81 C-34.88699219 80.62875 -34.08648437 80.2575 -33.26171875 79.875 C-31 79 -31 79 -28 79 C-28 78.34 -28 77.68 -28 77 C-26.20703125 75.73828125 -26.20703125 75.73828125 -23.8125 74.3125 C-19.25324124 71.40919843 -16.94978476 68.46937085 -14 64 C-13.34 64 -12.68 64 -12 64 C-11.67 63.01 -11.34 62.02 -11 61 C-10.34 61 -9.68 61 -9 61 C-8.896875 60.113125 -8.79375 59.22625 -8.6875 58.3125 C-8 55 -8 55 -6.5625 52.8125 C-1.2839793 43.31116274 -2.56947227 30.38996813 -2.375 19.8125 C-2.33673554 18.08006031 -2.29767919 16.34763793 -2.2578125 14.61523438 C-2.1627483 10.41029995 -2.07838889 6.20527698 -2 2 C-3.98 2 -5.96 2 -8 2 C-4.91190305 0.23537317 -3.76687864 0 0 0 Z " fill="#E0FCFD" transform="translate(281,1056)"/>
<path d="M0 0 C0.33 0 0.66 0 1 0 C1.02332821 17.97569233 1.04097879 35.95138074 1.05181217 53.92708492 C1.0569753 62.27292829 1.06401831 70.61876227 1.07543945 78.96459961 C1.08538579 86.2361877 1.09185331 93.50776899 1.09408849 100.77936369 C1.09539569 104.63199521 1.09848208 108.48460728 1.10573006 112.33723259 C1.11248948 115.95932672 1.11461712 119.58139328 1.11310768 123.20349312 C1.11351637 125.17497228 1.11891197 127.14644841 1.12442017 129.11791992 C1.1230455 130.28044785 1.12167084 131.44297577 1.12025452 132.64073181 C1.12117631 133.65746947 1.1220981 134.67420713 1.12304783 135.72175503 C1 138 1 138 0 139 C-1.44289787 139.09295815 -2.89029785 139.11746513 -4.33618164 139.11352539 C-5.71750023 139.11341209 -5.71750023 139.11341209 -7.12672424 139.11329651 C-8.12775681 139.10813522 -9.12878937 139.10297394 -10.16015625 139.09765625 C-11.17975937 139.0962413 -12.19936249 139.09482635 -13.24986267 139.09336853 C-16.52077107 139.08775097 -19.79161213 139.0751955 -23.0625 139.0625 C-25.27408756 139.05748726 -27.48567618 139.05292396 -29.69726562 139.04882812 C-35.13155752 139.0386248 -40.56570298 139.01905285 -46 139 C-46 132.07 -46 125.14 -46 118 C-45.67 118 -45.34 118 -45 118 C-44.67 124.27 -44.34 130.54 -44 137 C-29.48 137 -14.96 137 0 137 C0 91.79 0 46.58 0 0 Z " fill="#D9FBFE" transform="translate(330,1040)"/>
<path d="M0 0 C0.66 0 1.32 0 2 0 C-4.55680355 14.35494369 -20.89227247 24.60894903 -35.1484375 30.05859375 C-62.22771402 39.75999184 -94.45856825 41.53715872 -121 29 C-121 28.67 -121 28.34 -121 28 C-114.96028305 27.36424032 -110.41175297 29.6806773 -105 32 C-84.92009083 38.69330306 -59.53152481 36.07175898 -40 29 C-38.68 29 -37.36 29 -36 29 C-36 28.34 -36 27.68 -36 27 C-34.90300781 26.45730469 -33.80601562 25.91460938 -32.67578125 25.35546875 C-31.22130061 24.6329203 -29.7668765 23.91025804 -28.3125 23.1875 C-27.59126953 22.83107422 -26.87003906 22.47464844 -26.12695312 22.10742188 C-19.9103876 19.01333218 -14.83949132 16.08146589 -10 11 C-8.7625 9.7934375 -8.7625 9.7934375 -7.5 8.5625 C-5.63018995 6.6459447 -3.97758153 4.76763118 -2.3125 2.6875 C-1.1678125 1.3571875 -1.1678125 1.3571875 0 0 Z " fill="#90D6E4" transform="translate(281,1147)"/>
<path d="M0 0 C-0.99 0.33 -1.98 0.66 -3 1 C-4.79879667 -0.17613628 -6.59729327 -1.35273329 -8.39453125 -2.53125 C-18.88265824 -8.44359745 -31.25303601 -10.26644391 -43 -12 C-43.80566406 -12.13277344 -44.61132812 -12.26554688 -45.44140625 -12.40234375 C-59.00115202 -14.33945029 -72.52595767 -13.05276071 -85.86572266 -10.41455078 C-87.92071896 -10.01539913 -89.9787437 -9.65642858 -92.04296875 -9.30859375 C-101.36242507 -7.64610154 -110.54805749 -5.31178085 -118.375 0.25 C-121.30666816 2.20444544 -123.52325089 2.66888104 -127 3 C-123.56433394 -1.01722412 -119.74167566 -2.85390468 -115 -4.9375 C-114.21906982 -5.28304932 -113.43813965 -5.62859863 -112.63354492 -5.98461914 C-79.49098544 -20.05355195 -30.45168392 -21.42896276 0 0 Z " fill="#92D7E4" transform="translate(295,945)"/>
<path d="M0 0 C2.97022035 1.48511018 3.08534643 3.38874044 4.125 6.5 C6.58785899 14.70040826 6.2823339 22.52349142 6 31 C-3.79772361 32.92039713 -13.58435638 34.60393465 -23.4848938 35.92282295 C-25.57243789 36.20106113 -27.65919378 36.48469654 -29.74584961 36.76951599 C-34.91371859 37.47390371 -40.08269922 38.16997348 -45.25177002 38.86547852 C-49.65912776 39.45874682 -54.06596512 40.0556352 -58.47216797 40.65742302 C-60.51223259 40.93457714 -62.55295086 41.20648086 -64.59375 41.47816467 C-70.8629168 42.33315444 -76.88751297 43.37963297 -83 45 C-86.5 45.125 -86.5 45.125 -89 45 C-86.67547236 42.26315374 -85.03324237 41.52992005 -81.51171875 40.97265625 C-80.59358398 40.8223999 -79.67544922 40.67214355 -78.72949219 40.51733398 C-77.72563477 40.36723877 -76.72177734 40.21714355 -75.6875 40.0625 C-74.63079102 39.8962915 -73.57408203 39.73008301 -72.48535156 39.55883789 C-51.64296368 36.33870409 -30.73153306 33.76487261 -9.75390625 31.61328125 C-5.48359456 31.17147748 -1.24290615 30.6532244 3 30 C3.08797281 26.81267746 3.14071341 23.62567212 3.1875 20.4375 C3.21263672 19.54224609 3.23777344 18.64699219 3.26367188 17.72460938 C3.32720871 11.94275728 2.53919709 8.17836258 0 3 C0 2.01 0 1.02 0 0 Z " fill="#DEFCFD" transform="translate(275,991)"/>
<path d="M0 0 C0 0.66 0 1.32 0 2 C1.32 2 2.64 2 4 2 C4 2.66 4 3.32 4 4 C4.680625 4.185625 5.36125 4.37125 6.0625 4.5625 C14.28135836 8.58449452 19.69468913 17.02310254 22.875 25.375 C25.01944026 32.99435197 23.70281673 41.22667759 23 49 C22.67 49 22.34 49 22 49 C21.97421875 47.92363281 21.9484375 46.84726562 21.921875 45.73828125 C21.46386549 32.37301035 20.02111057 19.82227901 10 10 C-1.89504007 -0.20228437 -17.60254422 -1.82072945 -32.69628906 -1.18359375 C-43.90524881 -0.2902981 -54.72875942 3.64142139 -65 8 C-65 7.34 -65 6.68 -65 6 C-48.79187757 -5.85564066 -18.2888985 -7.21930204 0 0 Z " fill="#8ED5E2" transform="translate(259,973)"/>
<path d="M0 0 C1.00065301 3.11314269 0.88579081 4.88776203 0 8 C-0.70891603 15.52541629 0.37835041 22.9118363 3 30 C4.5309492 31.68814217 4.5309492 31.68814217 6 33 C6 33.66 6 34.32 6 35 C6.57105469 35.27585937 7.14210938 35.55171875 7.73046875 35.8359375 C10 37 10 37 12.05078125 38.2890625 C19.45310693 42.66142068 26.55156777 43.3751263 35 42 C41.48017216 39.79483701 47.00158078 36.57804162 51 31 C51.66 31 52.32 31 53 31 C50.272973 37.08336793 45.39864365 40.60557247 39.4375 43.375 C32.2540405 45.96629361 24.34287935 46.45916132 17.05859375 44.01171875 C8.98546489 40.12554793 2.59958011 35.06913922 -0.98046875 26.7109375 C-4.13600604 17.37765818 -4.06137099 8.96886093 0 0 Z " fill="#92D5E2" transform="translate(387,852)"/>
<path d="M0 0 C0 0.66 0 1.32 0 2 C-4.01877725 4.31079692 -7.27898644 5.2657695 -11.8828125 5.69140625 C-14.13932614 6.02030768 -16.04959253 6.65046813 -18.1875 7.4375 C-38.22511116 14.26239105 -61.26334758 11.57888414 -81 5 C-81 4.34 -81 3.68 -81 3 C-80.10861328 3.18175781 -80.10861328 3.18175781 -79.19921875 3.3671875 C-78.37035156 3.53476563 -77.54148438 3.70234375 -76.6875 3.875 C-75.88699219 4.03742188 -75.08648437 4.19984375 -74.26171875 4.3671875 C-72.64716797 4.68042969 -72.64716797 4.68042969 -71 5 C-70.23292725 5.16757813 -69.46585449 5.33515625 -68.67553711 5.5078125 C-61.14162027 7.05224132 -53.86358753 7.31089654 -46.1875 7.25 C-44.32593262 7.23876099 -44.32593262 7.23876099 -42.42675781 7.22729492 C-29.22185048 7.07183067 -17.70957723 5.22310793 -5.203125 1.0234375 C-2 0 -2 0 0 0 Z " fill="#E9FEFE" transform="translate(248,1176)"/>
<path d="M0 0 C-1.09957031 0.36351562 -2.19914062 0.72703125 -3.33203125 1.1015625 C-23.19499825 7.79537562 -44.03089883 18.98786729 -56 37 C-56.22988506 39.36278736 -56.22988506 39.36278736 -53.5 41.625 C-52.675 42.40875 -51.85 43.1925 -51 44 C-54.23060419 43.44299928 -56.0658223 42.70784878 -58 40 C-58.46856135 36.25150923 -58.15502531 35.23253796 -56 32 C-55.34 32 -54.68 32 -54 32 C-54 31.01 -54 30.02 -54 29 C-52.00669158 27.65668346 -50.00615134 26.32405988 -48 25 C-47.31822584 23.67432801 -46.64808564 22.34246312 -46 21 C-43.875 20.25 -43.875 20.25 -42 20 C-42 19.34 -42 18.68 -42 18 C-41.01 18 -40.02 18 -39 18 C-38.814375 17.4225 -38.62875 16.845 -38.4375 16.25 C-36.26871285 12.85537664 -33.59005374 11.79502687 -30 10 C-29.34 10 -28.68 10 -28 10 C-28 9.34 -28 8.68 -28 8 C-26.58774074 7.32404685 -25.16997095 6.65959941 -23.75 6 C-22.96109375 5.62875 -22.1721875 5.2575 -21.359375 4.875 C-19 4 -19 4 -15 4 C-15 3.34 -15 2.68 -15 2 C-13.06524329 1.46906676 -11.12706845 0.95057683 -9.1875 0.4375 C-8.10855469 0.14746094 -7.02960938 -0.14257812 -5.91796875 -0.44140625 C-3 -1 -3 -1 0 0 Z " fill="#E1FCFD" transform="translate(197,935)"/>
<path d="M0 0 C0 0.33 0 0.66 0 1 C-1.68770515 0.85656032 -3.37515486 0.71011431 -5.0625 0.5625 C-6.00222656 0.48128906 -6.94195312 0.40007813 -7.91015625 0.31640625 C-10.02424356 0.09991943 -12.13271486 -0.17770593 -14.23217773 -0.50708008 C-20.07701547 -1.27172256 -25.91876504 -1.22449001 -31.80322266 -1.24023438 C-33.96687588 -1.24985275 -36.12954111 -1.28089549 -38.29296875 -1.3125 C-46.7882795 -1.37506537 -54.54929008 -0.58385874 -62.828125 1.35253906 C-65.668676 1.93236828 -68.11570319 2.12876325 -71 2 C-70.01 1.67 -69.02 1.34 -68 1 C-68 0.34 -68 -0.32 -68 -1 C-48.04036423 -6.98789073 -19.64902795 -6.91785303 0 0 Z " fill="#E0FCFE" transform="translate(268,932)"/>
<path d="M0 0 C3.85817949 1.5718509 6.110257 4.04458102 9 7 C10.28520792 8.11167774 11.57740526 9.21530599 12.875 10.3125 C16.45184298 13.38318595 19.42810107 16.71300086 22.359375 20.3984375 C24.21905746 22.21384181 25.46324316 22.61397179 28 23 C28.40992188 22.4946875 28.81984375 21.989375 29.2421875 21.46875 C29.78101563 20.8190625 30.31984375 20.169375 30.875 19.5 C31.67550781 18.52546875 31.67550781 18.52546875 32.4921875 17.53125 C32.98976562 17.0259375 33.48734375 16.520625 34 16 C34.66 16 35.32 16 36 16 C36 15.34 36 14.68 36 14 C40.47058824 10 40.47058824 10 43 10 C43 9.34 43 8.68 43 8 C45.31 7.34 47.62 6.68 50 6 C47.42015396 8.67260454 44.799364 10.98407574 41.8125 13.1875 C36.77030144 17.04034275 32.3862948 21.42705435 28 26 C23.49636469 24.58824528 20.70710712 22.1187005 17.48046875 18.80859375 C16.97703445 18.30328629 16.47360016 17.79797882 15.95491028 17.27735901 C14.89845126 16.21420607 13.84558176 15.1474754 12.79614258 14.07739258 C11.18244573 12.43234754 9.55813895 10.79839551 7.93164062 9.16601562 C6.90562008 8.1308323 5.88020734 7.09504612 4.85546875 6.05859375 C4.12435127 5.32110146 4.12435127 5.32110146 3.37846375 4.56871033 C0 1.11719706 0 1.11719706 0 0 Z " fill="#90D5E2" transform="translate(143,975)"/>
<path d="M0 0 C-8.62449681 2.98113636 -16.37029371 4.34930458 -25.46875 4.63647461 C-29.82672089 4.79999116 -33.66350218 5.25677536 -37.875 6.5 C-46.3308971 8.95532423 -55.25638509 8.74944187 -64 9 C-64 8.67 -64 8.34 -64 8 C-48.29263157 5.39576943 -32.57660145 2.86337984 -16.8125 0.625 C-15.5850708 0.44549805 -14.3576416 0.26599609 -13.09301758 0.08105469 C-11.95501709 -0.07717773 -10.8170166 -0.23541016 -9.64453125 -0.3984375 C-8.64784424 -0.53942871 -7.65115723 -0.68041992 -6.62426758 -0.82568359 C-4.11868763 -0.9921162 -2.36971466 -0.77339732 0 0 Z " fill="#DBFAFC" transform="translate(272,1059)"/>
<path d="M0 0 C4.48883422 2.3894935 8.758353 5.55715298 12.0625 9.4375 C12.0625 10.4275 12.0625 11.4175 12.0625 12.4375 C11.68480469 11.99019531 11.30710937 11.54289063 10.91796875 11.08203125 C4.91234114 4.48568617 -2.26125778 0.30068653 -11.3125 -0.1875 C-19.0630395 0.24493353 -26.70617031 2.53609586 -32.5390625 7.7734375 C-34.46219816 9.92762126 -36.24919158 12.09631098 -37.9375 14.4375 C-37.9375 10.12502442 -35.82639247 8.48284046 -33.015625 5.375 C-24.6365969 -2.4370262 -10.5134749 -4.30849935 0 0 Z " fill="#95D7E3" transform="translate(426.9375,837.5625)"/>
<path d="M0 0 C1.61447958 4.03619895 0.19020382 6.9665315 -1 11 C-2.76692195 22.13160826 -2.59179321 33.85744756 -1 45 C-1.66 45 -2.32 45 -3 45 C-4.72500031 38.42343632 -5.21832995 32.20235524 -5.25 25.4375 C-5.25902344 24.64690186 -5.26804687 23.85630371 -5.27734375 23.04174805 C-5.2360632 14.73489825 -3.51290938 7.50485186 0 0 Z " fill="#E4FDFE" transform="translate(122,1084)"/>
<path d="M0 0 C0 0.66 0 1.32 0 2 C0.66 2 1.32 2 2 2 C1.67 3.32 1.34 4.64 1 6 C0.5153125 5.52949219 0.030625 5.05898438 -0.46875 4.57421875 C-8.86611638 -3.22564271 -14.93880016 -4.45601928 -26.41015625 -4.23828125 C-30.54779466 -3.96363931 -34.06923484 -3.28351515 -38 -2 C-37 -4 -37 -4 -35.14453125 -4.81640625 C-34.37496094 -5.06261719 -33.60539062 -5.30882812 -32.8125 -5.5625 C-32.05582031 -5.81128906 -31.29914063 -6.06007813 -30.51953125 -6.31640625 C-19.68307831 -9.25652914 -8.86374958 -6.91372467 0 0 Z " fill="#E2FCFE" transform="translate(437,841)"/>
<path d="M0 0 C0 0.66 0 1.32 0 2 C-4.02511521 4.31444125 -7.28985465 5.27530021 -11.90380859 5.6862793 C-14.09877389 6.01478272 -15.80513272 6.67343544 -17.8515625 7.51953125 C-24.30200615 9.73614668 -30.8206625 9.3219919 -37.5625 9.1875 C-39.50479492 9.16719727 -39.50479492 9.16719727 -41.48632812 9.14648438 C-44.65799214 9.1113737 -47.8287709 9.06219347 -51 9 C-51 8.67 -51 8.34 -51 8 C-50.26177002 7.97083496 -49.52354004 7.94166992 -48.76293945 7.91162109 C-33.04189282 7.22189841 -18.62823517 5.67018333 -3.71044922 0.51904297 C-2 0 -2 0 0 0 Z " fill="#D9F9FC" transform="translate(248,1176)"/>
<path d="M0 0 C0.66 0.33 1.32 0.66 2 1 C0.31457981 2.85609565 -1.37280381 4.7103014 -3.0625 6.5625 C-3.56185059 7.110271 -4.06120117 7.65804199 -4.57568359 8.22241211 C-7.85793482 11.80473371 -11.21659204 15.26823127 -14.7578125 18.59765625 C-16.25073142 20.09831574 -16.25073142 20.09831574 -17 23 C-17.99 22.67 -18.98 22.34 -20 22 C-16.15924376 13.55033628 -7.64002811 5.19521911 0 0 Z " fill="#89D8E7" transform="translate(160,952)"/>
<path d="M0 0 C0.639375 0.70125 1.27875 1.4025 1.9375 2.125 C7.39114833 7.57864833 14.4467207 12.63008006 22.26953125 13.265625 C28.85798147 13.23656899 34.70799863 13.01344044 41 11 C39.56882627 13.86234745 37.42286638 14.36577013 34.515625 15.390625 C27.05942731 17.19678469 19.71165536 16.79905021 13 13 C3.16068768 6.9852149 3.16068768 6.9852149 0 3 C0 2.01 0 1.02 0 0 Z " fill="#E0FBFD" transform="translate(388,883)"/>
<path d="M0 0 C-1.03447266 0.70962891 -1.03447266 0.70962891 -2.08984375 1.43359375 C-8.72250291 6.10102057 -14.43100598 11.11775007 -20 17 C-20.99665741 18.00333145 -21.99530157 19.00472061 -23 20 C-22.87641835 15.92180543 -21.36318314 14.11176714 -18.5625 11.375 C-17.94503906 10.80523438 -17.32757813 10.23546875 -16.69140625 9.6484375 C-14.78800102 7.90810893 -14.78800102 7.90810893 -13 5 C-12.01 5 -11.02 5 -10 5 C-9.67 4.01 -9.34 3.02 -9 2 C-3.69230769 -1.23076923 -3.69230769 -1.23076923 0 0 Z " fill="#E1FCFE" transform="translate(154,1049)"/>
<path d="M0 0 C0.99 0 1.98 0 3 0 C3.6509259 1.24735567 4.29551669 2.49801832 4.9375 3.75 C5.29714844 4.44609375 5.65679687 5.1421875 6.02734375 5.859375 C8.02839508 10.2632952 8.16190776 14.1681853 8.1875 19 C8.20167969 20.216875 8.21585937 21.43375 8.23046875 22.6875 C8.01586625 25.7719563 7.62758774 27.42673876 6 30 C4.90528362 26.52217028 4.99503758 23.43845145 5.125 19.8125 C5.19296555 12.25133226 3.4052422 6.64762499 0 0 Z " fill="#E1FCFD" transform="translate(439,847)"/>
<path d="M0 0 C0 0.66 0 1.32 0 2 C-2.125 3.55078125 -2.125 3.55078125 -5 5.3125 C-5.99902344 5.93253906 -6.99804688 6.55257812 -8.02734375 7.19140625 C-9.82899912 8.28755137 -11.6330319 9.37981914 -13.44140625 10.46484375 C-14.14136719 10.88894531 -14.84132812 11.31304688 -15.5625 11.75 C-16.18253906 12.11609375 -16.80257812 12.4821875 -17.44140625 12.859375 C-19.3063802 14.08705634 -19.3063802 14.08705634 -21 17 C-21.99 16.67 -22.98 16.34 -24 16 C-7.60090703 0 -7.60090703 0 0 0 Z " fill="#E1FCFE" transform="translate(201,978)"/>
<path d="M0 0 C0 12.87 0 25.74 0 39 C-0.33 39 -0.66 39 -1 39 C-1.33 27.12 -1.66 15.24 -2 3 C-4.97 2.505 -4.97 2.505 -8 2 C-4.91190305 0.23537317 -3.76687864 0 0 0 Z " fill="#D1FCFD" transform="translate(281,1056)"/>
<path d="M0 0 C0.33 0 0.66 0 1 0 C1 1.98 1 3.96 1 6 C0.01 6 -0.98 6 -2 6 C-3.1619441 7.09359444 -4.31396628 8.19987923 -5.41015625 9.359375 C-7.39183559 11.40435122 -9.4594969 13.33001687 -11.5625 15.25 C-12.67818359 16.27867188 -12.67818359 16.27867188 -13.81640625 17.328125 C-15.96702962 18.97475613 -17.35532825 19.59220481 -20 20 C-17.15421516 17.06528438 -14.24308235 14.33241032 -11.125 11.6875 C-7.50077626 8.56530346 -4.40629918 5.17567122 -1.34765625 1.50390625 C-0.90292969 1.00761719 -0.45820313 0.51132813 0 0 Z " fill="#D8FAFD" transform="translate(283,1148)"/>
<path d="M0 0 C1.32 0.33 2.64 0.66 4 1 C3.48050781 1.38929688 2.96101563 1.77859375 2.42578125 2.1796875 C-3.24727841 6.73071872 -6.20523515 11.32212438 -9 18 C-9.33 18 -9.66 18 -10 18 C-10.66344497 13.57703355 -9.79993531 11.2609662 -7.25 7.75 C-5.09049495 4.93609948 -3.27045783 3.39349942 0 2 C0 1.34 0 0.68 0 0 Z " fill="#E5FDFE" transform="translate(395,839)"/>
<path d="M0 0 C7.86590179 3.59285093 13.5691725 10.46603567 19 17 C18.67 17.66 18.34 18.32 18 19 C17.278125 18.113125 16.55625 17.22625 15.8125 16.3125 C11.54425131 11.22160002 7.00775606 7.13852042 1.57421875 3.33203125 C1.05472656 2.89246094 0.53523438 2.45289063 0 2 C0 1.34 0 0.68 0 0 Z " fill="#91D6E3" transform="translate(295,946)"/>
<path d="M0 0 C7.05433013 0.32065137 13.02603057 3.355788 19 7 C19.99 8.485 19.99 8.485 21 10 C17.34779258 9.29057842 14.35713004 7.76174803 11.0625 6.0625 C7.42402567 4.19036466 3.82470101 2.45803519 0 1 C0 0.67 0 0.34 0 0 Z " fill="#DEFCFE" transform="translate(248,973)"/>
<path d="M0 0 C-1.53643852 3.68069887 -3.78150945 5.98775204 -6.625 8.75 C-7.85089844 9.94882813 -7.85089844 9.94882813 -9.1015625 11.171875 C-9.72804688 11.77515625 -10.35453125 12.3784375 -11 13 C-11.99 12.67 -12.98 12.34 -14 12 C-12.04761147 9.99387601 -10.08862178 7.99507567 -8.125 6 C-7.29162109 5.14148437 -7.29162109 5.14148437 -6.44140625 4.265625 C-2.2265625 0 -2.2265625 0 0 0 Z " fill="#222C36" transform="translate(1179,1054)"/>
<path d="M0 0 C4.76563433 4.57500895 9.33259688 9.49889533 13 15 C8.7983974 14.50852814 6.99405906 12.24990578 4.25 9.1875 C3.45078125 8.31480469 2.6515625 7.44210937 1.828125 6.54296875 C0 4 0 4 0 0 Z " fill="#DCFBFC" transform="translate(129,1149)"/>
<path d="M0 0 C0.33 0.66 0.66 1.32 1 2 C0.06553465 4.03144641 -0.93224776 6.03533587 -2 8 C-2.66 8 -3.32 8 -4 8 C-4.33 9.65 -4.66 11.3 -5 13 C-5.66 13 -6.32 13 -7 13 C-5.58832253 7.73829306 -3.25149768 4.27828642 0 0 Z " fill="#DDFBFD" transform="translate(177,1082)"/>
<path d="M0 0 C-1.38188453 3.21043882 -2.92421903 5.04936365 -5.625 7.25 C-6.57246094 8.03117188 -6.57246094 8.03117188 -7.5390625 8.828125 C-8.02117187 9.21484375 -8.50328125 9.6015625 -9 10 C-9 7 -9 7 -7.5390625 5.17578125 C-6.90742187 4.56089844 -6.27578125 3.94601562 -5.625 3.3125 C-4.68527344 2.37857422 -4.68527344 2.37857422 -3.7265625 1.42578125 C-2 0 -2 0 0 0 Z " fill="#2D3741" transform="translate(1730,960)"/>
<path d="M0 0 C-1.78953185 0.83790789 -3.58169695 1.67019396 -5.375 2.5 C-6.87160156 3.19609375 -6.87160156 3.19609375 -8.3984375 3.90625 C-11 5 -11 5 -13 5 C-12 2 -12 2 -10.0390625 1.015625 C-9.24242187 0.76296875 -8.44578125 0.5103125 -7.625 0.25 C-6.83351562 -0.01296875 -6.04203125 -0.2759375 -5.2265625 -0.546875 C-3 -1 -3 -1 0 0 Z " fill="#E2FDFE" transform="translate(167,1043)"/>
<path d="M0 0 C0.99 0.33 1.98 0.66 3 1 C0.69 3.31 -1.62 5.62 -4 8 C-4.99 7.67 -5.98 7.34 -7 7 C-4.69 4.69 -2.38 2.38 0 0 Z " fill="#2E3842" transform="translate(509,1057)"/>
<path d="M0 0 C0 2 0 2 -1.5 3.5625 C-4.9985316 5.57415567 -7.98949133 5.66579094 -12 6 C-3 0 -3 0 0 0 Z " fill="#DFFBFD" transform="translate(260,1170)"/>
<path d="M0 0 C-1.40691607 0.72750788 -2.82606022 1.43140353 -4.25 2.125 C-5.03890625 2.51945313 -5.8278125 2.91390625 -6.640625 3.3203125 C-9 4 -9 4 -11.296875 3.1171875 C-11.85890625 2.74851562 -12.4209375 2.37984375 -13 2 C-11.5882217 1.46605821 -10.17029756 0.94834896 -8.75 0.4375 C-7.96109375 0.14746094 -7.1721875 -0.14257812 -6.359375 -0.44140625 C-3.80896548 -1.04522837 -2.44677771 -0.8473932 0 0 Z " fill="#DCFBFD" transform="translate(214,975)"/>
<path d="M0 0 C0.66 0.33 1.32 0.66 2 1 C-2.82142857 7.29464286 -2.82142857 7.29464286 -7 8 C-6.02133662 6.85373678 -5.04205413 5.70800212 -4.0625 4.5625 C-3.51722656 3.92441406 -2.97195313 3.28632812 -2.41015625 2.62890625 C-1.63204305 1.73008851 -0.84063472 0.84063472 0 0 Z " fill="#232D36" transform="translate(943,957)"/>
<path d="M0 0 C0 3.15987325 -0.38214873 4.36034793 -2 7 C-2.99 7.66 -3.98 8.32 -5 9 C-5 4.61031544 -2.87194899 3.23094261 0 0 Z " fill="#2A343E" transform="translate(820,955)"/>
<path d="M0 0 C3.5875213 1.33250791 6.8364623 2.830717 10 5 C10 5.66 10 6.32 10 7 C5.56541027 5.6062718 3.12621626 3.39417765 0 0 Z " fill="#DCFBFD" transform="translate(177,1132)"/>
<path d="M0 0 C0.66 0.99 1.32 1.98 2 3 C0.37660195 4.70884005 -1.29319053 6.37446717 -3 8 C-3.66 8 -4.32 8 -5 8 C-3.62845496 5.04590299 -2.01136276 2.55991624 0 0 Z " fill="#2B3640" transform="translate(1582,1109)"/>
<path d="M0 0 C0.33 0 0.66 0 1 0 C1 2.64 1 5.28 1 8 C0.34 7.01 -0.32 6.02 -1 5 C-1.99 5.66 -2.98 6.32 -4 7 C-2.92598892 4.08482708 -2.22189824 2.22189824 0 0 Z " fill="#BDC4C8" transform="translate(1315,1147)"/>
<path d="M0 0 C0 3.38023517 -0.87455622 5.83468937 -2 9 C-2.99 8.67 -3.98 8.34 -5 8 C-3.62845496 5.04590299 -2.01136276 2.55991624 0 0 Z " fill="#98D8E3" transform="translate(145,966)"/>
</svg>
